<?xml version="1.0" standalone="no"?>
<!DOCTYPE svg PUBLIC "-//W3C//DTD SVG 20010904//EN"
 "http://www.w3.org/TR/2001/REC-SVG-20010904/DTD/svg10.dtd">
<svg version="1.0" xmlns="http://www.w3.org/2000/svg"
 width="640.000000pt" height="640.000000pt" viewBox="0 0 640.000000 640.000000"
 preserveAspectRatio="xMidYMid meet">
<metadata>
Created by potrace 1.11, written by Peter Selinger 2001-2013
</metadata>
<g transform="translate(0.000000,640.000000) scale(0.100000,-0.100000)"
fill="#000000" stroke="none">
<path d="M2438 5736 c-165 -58 -308 -215 -401 -438 -39 -94 -81 -257 -93 -353
-3 -33 -8 -67 -9 -75 -2 -8 -6 -59 -10 -112 l-7 -98 65 0 65 0 7 53 c18 148
53 261 107 341 60 91 172 169 279 196 42 11 161 9 199 -2 84 -24 178 -97 244
-187 118 -162 212 -424 305 -845 l28 -129 -57 -122 c-32 -67 -69 -146 -83
-176 -14 -30 -41 -88 -60 -129 -33 -72 -58 -127 -117 -255 -41 -90 -95 -205
-156 -333 -30 -63 -54 -116 -54 -117 0 -2 -22 -49 -49 -106 -26 -57 -74 -160
-106 -229 -32 -69 -82 -176 -111 -239 -30 -62 -54 -114 -54 -116 0 -1 -22 -50
-49 -107 -27 -58 -63 -133 -79 -169 -47 -101 -216 -467 -255 -549 -129 -276
-207 -446 -207 -452 0 -5 145 -7 321 -6 l322 3 99 225 c54 124 142 324 195
445 52 121 106 243 118 270 13 28 48 106 78 175 30 69 63 145 75 170 22 48
130 294 244 555 38 88 78 178 88 200 10 22 28 65 41 95 13 30 31 70 39 88 l16
33 12 -48 c6 -26 36 -160 67 -298 61 -281 90 -412 111 -500 7 -33 34 -152 59
-265 80 -363 107 -467 156 -612 102 -299 198 -434 373 -524 96 -49 161 -64
274 -64 129 0 213 27 302 99 197 159 283 383 306 799 l7 122 -66 0 c-74 0 -63
15 -88 -124 -42 -239 -173 -385 -363 -403 -136 -12 -251 36 -363 153 -99 103
-175 260 -256 529 -31 105 -49 174 -112 440 -8 33 -33 146 -56 250 -48 222
-55 255 -105 475 -20 91 -40 181 -44 200 -13 64 -81 364 -95 425 -8 33 -32
139 -54 235 -143 624 -249 997 -341 1196 -99 216 -242 361 -408 416 -82 27
-208 24 -294 -6z"/>
<path d="M469 3884 c-35 -75 -65 -142 -67 -148 -1 -6 147 -87 330 -180 597
-303 796 -407 916 -477 l64 -36 -47 -27 c-26 -14 -50 -26 -52 -26 -3 0 -32
-16 -64 -36 -54 -32 -284 -151 -916 -471 -128 -65 -233 -122 -233 -126 0 -22
136 -287 148 -287 7 0 86 38 175 84 89 46 239 123 332 171 94 48 215 111 270
140 55 29 195 101 310 160 116 59 291 150 390 201 l180 93 3 125 3 125 -173
87 c-95 47 -177 90 -183 94 -5 4 -113 60 -240 125 -126 65 -284 146 -350 180
-66 34 -205 106 -310 160 -104 54 -236 122 -292 151 -56 30 -108 54 -116 54
-7 0 -41 -59 -78 -136z"/>
<path d="M1622 3880 c-47 -96 -65 -143 -58 -149 11 -8 124 -67 581 -301 121
-62 248 -128 283 -147 62 -32 67 -33 181 -33 l118 0 72 156 c39 86 71 160 71
165 0 5 -68 9 -151 9 l-152 0 -266 137 c-146 75 -279 144 -296 153 -78 43
-293 150 -303 150 -7 0 -43 -63 -80 -140z"/>
<path d="M3700 3569 c0 -7 4 -28 10 -48 5 -20 21 -89 35 -153 l27 -118 1119 0
1119 0 0 165 0 165 -1155 0 c-854 0 -1155 -3 -1155 -11z"/>
<path d="M2465 2824 c-46 -24 -434 -223 -675 -347 -118 -60 -220 -114 -227
-119 -8 -6 9 -49 59 -151 39 -78 71 -143 72 -144 1 -1 65 30 142 69 76 39 216
111 309 159 l170 87 45 89 c25 49 56 114 69 144 13 30 42 90 63 133 21 44 38
83 38 88 0 13 -32 9 -65 -8z"/>
<path d="M3305 2764 c-19 -42 -35 -78 -35 -80 0 -1 -16 -37 -35 -78 -19 -42
-35 -81 -35 -86 0 -6 54 -10 140 -10 128 0 140 2 140 18 0 22 -58 291 -66 303
-3 5 -21 9 -40 9 -33 0 -36 -3 -69 -76z"/>
<path d="M3870 2822 c0 -21 59 -292 66 -304 3 -4 471 -8 1040 -8 l1034 0 0
165 0 165 -1070 0 c-1015 0 -1070 -1 -1070 -18z"/>
</g>
</svg>
