<svg xmlns="http://www.w3.org/2000/svg" width="896.188" height="772.375" viewBox="0 0 896.188 772.375">
  <defs>
    <style>
      .cls-1 {
        mix-blend-mode: multiply;
      }

      .cls-2 {
        fill: #1a1a1a;
      }

      .cls-2, .cls-3 {
        fill-rule: evenodd;
      }

      .cls-3 {
        fill: #4d4d4d;
      }
    </style>
  </defs>
  <g id="Lambda" class="cls-1">
    <path id="lambda" class="cls-2" d="M722.986,821.384q-35.574,0-61.176-35.843T613.031,643.515L574.762,472.653Q534.337,290.477,515.2,232.53T469.927,150.6q-26.149-23.978-55.247-23.985-45.276,0-75.459,47.7t-31.8,126.933h19.4q2.691-49.039,25.6-72.495t53.63-23.446q38.265,0,64.141,46.354T514.4,394.5L283.7,891.453h101.87L546.2,527.092l46.354,209.13Q617.335,847.8,648.605,873.4,679.858,899,713.823,899q41.5,0,69.261-38.807t27.758-123.97h-19.4q-8.085,85.17-68.453,85.162h0Z" transform="translate(-64.813 -126.625)"/>
    <path id="bind" class="cls-3" d="M631.5,644.088L620.737,596H961v48.088H631.5ZM594.1,477H961v48H604.845ZM435.186,525h-39.21L249.8,449.8l22.416-43.572L409.786,477h47.669ZM353,578.546L87.421,714.994,64.99,671.452,280.459,560.747,64.8,449.8l22.417-43.572,265.4,136.543ZM402.247,596l-31.739,68.413L272.4,714.994,249.99,671.342,396.125,596h6.122Zm111.88,48.088L535.313,596h7.263l10.653,48.088h-39.1Z" transform="translate(-64.813 -126.625)"/>
  </g>
</svg>
