<?xml version="1.0" standalone="no"?>
<!DOCTYPE svg PUBLIC "-//W3C//DTD SVG 20010904//EN"
 "http://www.w3.org/TR/2001/REC-SVG-20010904/DTD/svg10.dtd">
<svg version="1.0" xmlns="http://www.w3.org/2000/svg"
 width="896.000000pt" height="896.000000pt" viewBox="0 0 896.000000 896.000000"
 preserveAspectRatio="xMidYMid meet">
<metadata>
Created by potrace 1.11, written by Peter Selinger 2001-2013
</metadata>
<g transform="translate(0.000000,896.000000) scale(0.100000,-0.100000)"
fill="#000000" stroke="none">
<path d="M3399 8336 c-2 -2 -22 -6 -44 -9 -22 -3 -52 -10 -65 -15 -14 -5 -28
-10 -32 -11 -65 -13 -211 -96 -281 -159 -124 -113 -251 -285 -319 -432 -55
-119 -68 -150 -68 -164 0 -8 -4 -17 -9 -20 -4 -3 -12 -20 -16 -38 -4 -18 -9
-35 -10 -38 -1 -3 -4 -12 -8 -20 -9 -23 -35 -121 -41 -153 -2 -15 -7 -35 -10
-45 -5 -18 -13 -57 -22 -107 -9 -54 -11 -69 -19 -130 -3 -33 -9 -71 -11 -85
-4 -23 -14 -184 -17 -275 l-2 -40 85 -1 c47 0 92 2 100 5 10 4 15 22 16 56 1
28 4 69 8 92 4 23 9 55 11 70 12 84 49 204 88 293 28 62 105 170 161 225 117
115 226 172 401 211 26 6 194 6 220 0 208 -45 363 -173 523 -431 34 -56 114
-225 149 -316 22 -57 44 -113 48 -124 4 -11 9 -24 11 -30 1 -5 12 -36 23 -67
11 -32 18 -58 15 -58 -2 0 2 -13 11 -30 9 -16 13 -30 9 -30 -4 0 -1 -7 6 -15
7 -8 10 -15 7 -15 -3 0 2 -21 10 -47 41 -134 129 -503 148 -623 2 -14 8 -39
14 -57 8 -27 2 -46 -46 -150 -30 -65 -64 -138 -75 -163 -11 -25 -34 -74 -51
-110 -17 -36 -31 -67 -32 -70 -1 -3 -15 -32 -30 -65 -16 -33 -29 -62 -30 -65
0 -3 -7 -16 -15 -30 -8 -14 -15 -27 -15 -30 -3 -12 -26 -63 -73 -161 -27 -57
-60 -126 -72 -154 -13 -27 -41 -88 -63 -135 -21 -47 -54 -118 -73 -158 -19
-40 -34 -77 -34 -82 0 -6 -4 -10 -10 -10 -5 0 -9 -3 -8 -7 1 -5 -7 -26 -17
-48 -10 -22 -19 -42 -20 -45 -1 -3 -15 -34 -32 -70 -54 -115 -99 -212 -168
-360 -105 -226 -131 -281 -155 -335 -13 -27 -45 -97 -73 -155 -49 -104 -89
-190 -92 -200 -1 -3 -18 -40 -38 -82 -45 -95 -123 -263 -196 -420 -57 -125
-164 -355 -212 -456 -27 -57 -49 -105 -49 -107 0 -2 -27 -61 -60 -132 -34 -70
-66 -139 -72 -153 -5 -14 -14 -32 -19 -40 -5 -8 -14 -26 -20 -40 -10 -25 -20
-46 -82 -180 -19 -41 -49 -105 -66 -142 -17 -38 -45 -98 -63 -135 -18 -38 -33
-70 -33 -73 -1 -3 -19 -41 -39 -85 -21 -44 -51 -108 -67 -142 -16 -34 -29 -67
-29 -72 0 -6 -4 -11 -10 -11 -5 0 -10 -7 -10 -15 0 -8 -9 -30 -19 -49 -44 -77
-86 -70 473 -71 322 0 503 3 511 10 11 9 88 180 272 605 30 69 68 153 84 188
16 35 29 65 29 67 0 2 15 36 34 77 18 40 46 102 61 138 15 36 43 98 61 138 19
41 34 75 34 78 0 2 16 39 36 81 19 43 39 87 44 98 65 149 95 217 110 250 10
22 32 74 50 115 18 41 43 98 55 125 13 28 37 84 55 125 35 81 66 149 111 248
16 35 29 65 29 67 0 3 12 30 26 62 26 58 36 79 72 163 17 40 39 89 87 195 7
17 39 89 71 160 31 72 64 146 72 165 9 19 16 37 17 40 1 3 12 28 24 55 13 28
38 84 56 125 18 41 43 98 56 125 12 28 23 52 24 55 7 25 36 82 40 78 3 -2 7
-24 10 -48 3 -23 8 -46 10 -51 3 -4 14 -49 25 -101 11 -51 22 -102 25 -113 3
-11 7 -31 10 -45 3 -14 8 -36 11 -50 3 -14 7 -36 10 -49 3 -12 11 -51 19 -85
8 -33 16 -72 19 -86 3 -14 7 -34 10 -45 8 -35 47 -209 52 -235 3 -14 11 -52
19 -85 8 -33 17 -71 19 -85 3 -14 12 -56 21 -95 18 -79 45 -200 51 -230 2 -11
6 -29 9 -40 6 -28 35 -156 40 -180 3 -11 7 -31 10 -45 13 -62 16 -76 20 -95 3
-11 7 -29 10 -40 2 -11 13 -60 24 -110 11 -49 27 -124 37 -165 10 -41 17 -81
15 -87 -1 -7 3 -13 9 -13 6 0 9 -4 6 -9 -3 -4 -1 -23 5 -42 6 -19 12 -43 13
-54 6 -35 25 -107 75 -280 119 -410 248 -693 383 -836 109 -116 321 -240 481
-280 100 -25 276 -33 372 -17 67 11 237 76 255 97 3 3 31 24 63 45 32 21 89
73 128 114 73 78 179 230 179 256 0 9 5 16 10 16 6 0 10 6 10 13 0 7 9 32 20
56 27 54 78 225 96 316 2 11 6 31 9 45 2 14 7 41 10 60 3 19 7 46 10 60 13 72
22 183 29 381 l6 157 -94 1 c-106 1 -102 4 -111 -80 -26 -239 -116 -471 -228
-590 -48 -50 -127 -115 -127 -103 0 4 -8 0 -17 -8 -10 -8 -27 -18 -38 -21 -11
-3 -39 -13 -62 -21 -72 -27 -200 -36 -298 -22 -256 36 -479 232 -633 556 -22
47 -47 101 -55 120 -23 56 -42 105 -43 110 0 3 -4 12 -7 20 -18 43 -114 344
-120 377 -2 10 -7 25 -10 33 -5 13 -14 49 -22 85 -2 6 -8 30 -16 55 -7 25 -13
50 -14 55 0 6 -4 21 -8 35 -11 39 -68 282 -72 305 -2 11 -13 63 -25 115 -12
52 -24 104 -26 115 -2 11 -5 27 -7 35 -4 17 -13 55 -28 115 -5 22 -11 51 -13
65 -4 23 -29 133 -52 225 -1 6 -4 21 -7 35 -3 14 -10 45 -16 70 -5 25 -12 56
-15 70 -3 14 -7 34 -10 45 -16 70 -36 163 -39 180 -2 11 -6 27 -10 35 -3 8
-11 44 -18 80 -7 36 -14 67 -14 70 -5 19 -19 86 -20 90 -1 3 -5 16 -8 30 -4
14 -9 36 -11 50 -7 36 -14 69 -20 88 -3 9 -8 31 -11 47 -8 46 -12 66 -28 136
-15 59 -30 127 -32 139 0 3 -4 11 -8 18 -5 6 -6 12 -4 12 4 0 -6 50 -28 145
-3 11 -7 31 -10 45 -21 98 -24 110 -29 128 -3 9 -7 28 -10 42 -2 14 -16 75
-30 135 -31 134 -55 234 -61 263 -9 38 -13 55 -35 147 -12 50 -23 99 -26 110
-5 27 -62 261 -74 305 -5 19 -17 64 -25 100 -9 36 -21 81 -26 100 -5 19 -14
60 -21 90 -7 30 -17 61 -21 68 -5 6 -6 12 -3 12 3 0 -1 18 -9 40 -8 22 -12 40
-9 40 2 0 0 8 -5 18 -5 9 -11 31 -14 47 -6 36 -94 341 -106 370 -5 11 -19 52
-31 90 -41 129 -99 269 -160 390 -58 114 -126 226 -142 233 -5 2 -8 8 -8 13 0
24 -163 187 -242 240 -102 70 -212 118 -308 136 -32 7 -226 14 -231 9z"/>
<path d="M212 5523 c-5 -10 -55 -107 -111 -215 l-101 -197 32 -17 c18 -9 96
-49 173 -89 277 -143 732 -377 1040 -535 110 -56 204 -106 210 -111 5 -5 17
-9 26 -9 10 0 19 -3 21 -7 2 -5 72 -43 156 -86 83 -43 228 -117 321 -165 93
-47 168 -90 165 -93 -2 -4 -84 -48 -182 -97 -97 -50 -224 -115 -282 -145 -58
-30 -148 -76 -200 -102 -52 -26 -120 -61 -150 -78 -30 -17 -59 -32 -65 -33 -5
-1 -46 -22 -91 -46 -44 -23 -134 -70 -200 -103 -65 -33 -122 -64 -125 -68 -3
-5 -9 -8 -13 -8 -3 1 -34 -13 -69 -31 -34 -17 -98 -50 -142 -72 -44 -22 -83
-45 -87 -51 -4 -5 -8 -7 -8 -4 0 3 -55 -22 -122 -57 -68 -35 -183 -94 -257
-132 -73 -37 -136 -73 -138 -80 -3 -7 11 -43 30 -80 19 -37 57 -110 85 -162
27 -52 57 -111 68 -130 10 -19 18 -39 19 -45 1 -16 36 -6 95 28 30 17 55 29
55 27 0 -3 16 5 35 16 19 12 134 72 255 134 121 62 288 148 370 190 83 43 206
106 275 140 69 35 127 67 128 72 2 4 11 8 21 8 9 0 21 4 26 9 6 4 132 70 280
146 149 76 289 149 313 162 23 14 42 22 42 17 0 -4 8 0 17 8 10 8 79 45 153
83 74 37 176 89 225 115 50 26 154 80 233 120 78 40 142 78 143 84 0 6 0 43
-1 81 -1 39 -1 75 -1 80 1 68 -2 157 -7 183 -1 5 -37 26 -79 47 -43 21 -84 43
-92 49 -7 5 -19 11 -25 12 -7 1 -32 14 -54 28 -23 14 -42 23 -42 20 0 -4 -6
-2 -12 4 -7 5 -92 50 -188 100 -96 49 -260 133 -365 187 -104 54 -255 131
-335 172 -80 41 -149 79 -155 84 -5 5 -17 9 -26 9 -10 0 -19 3 -21 8 -1 4 -48
29 -103 57 -55 27 -101 53 -103 57 -2 4 -11 8 -21 8 -9 0 -21 4 -26 9 -9 7
-385 202 -580 299 -38 20 -73 40 -77 46 -4 6 -8 8 -8 4 0 -4 -33 10 -72 31
-158 84 -251 131 -259 131 -5 0 -12 -8 -17 -17z"/>
<path d="M2046 5493 c-13 -27 -53 -104 -88 -173 -34 -69 -66 -126 -70 -128 -5
-2 -8 -11 -8 -20 0 -8 -8 -24 -17 -34 -10 -11 -13 -22 -7 -27 5 -5 86 -48 179
-96 293 -150 330 -170 335 -175 3 -3 11 -6 19 -8 8 -2 35 -15 60 -30 25 -14
51 -27 59 -28 7 -1 19 -7 26 -13 12 -10 85 -48 535 -278 102 -51 191 -99 198
-105 7 -6 13 -7 13 -3 0 4 7 2 15 -5 14 -11 176 -16 380 -10 25 0 33 7 47 38
9 20 40 87 69 147 29 61 53 115 55 120 1 6 18 45 38 87 38 81 42 93 27 83 -5
-3 -12 -1 -16 5 -4 6 -11 7 -17 3 -7 -3 -106 -6 -222 -6 l-211 0 -50 28 c-27
15 -56 32 -62 38 -7 5 -13 7 -13 4 0 -3 -36 14 -81 38 -44 24 -147 77 -227
117 -81 40 -149 75 -152 78 -3 3 -54 30 -115 61 -111 57 -504 259 -605 311
-30 15 -58 28 -62 28 -4 0 -19 -21 -32 -47z"/>
<path d="M5320 4842 c-23 -8 -29 -23 -19 -50 5 -14 12 -40 15 -60 3 -19 7 -42
10 -51 2 -9 8 -34 13 -56 5 -22 12 -51 14 -65 3 -14 15 -65 26 -115 l21 -90
1763 2 c969 1 1770 2 1780 2 16 1 17 19 17 240 l0 240 -125 -2 c-69 -1 -125 1
-125 5 0 4 -7 5 -14 2 -24 -9 -466 -10 -466 -1 0 5 -5 5 -11 1 -15 -9 -469
-11 -469 -2 0 4 -7 5 -16 1 -24 -9 -1424 -9 -1424 0 0 5 -5 5 -11 1 -16 -10
-469 -11 -469 -1 0 5 -5 5 -10 2 -13 -8 -463 -11 -476 -3 -5 3 -16 3 -24 0z"/>
<path d="M3220 3603 c-52 -27 -97 -50 -100 -53 -3 -3 -47 -25 -97 -50 -51 -25
-93 -48 -93 -52 0 -5 -7 -8 -15 -8 -9 0 -32 -11 -53 -24 -20 -12 -39 -23 -42
-23 -12 -1 -106 -49 -118 -60 -7 -7 -22 -13 -32 -13 -10 0 -20 -4 -22 -8 -1
-5 -55 -35 -118 -67 -216 -109 -365 -187 -377 -197 -7 -6 -13 -7 -13 -3 0 5
-8 2 -17 -6 -10 -8 -75 -43 -145 -79 l-127 -64 102 -201 c56 -110 105 -201
110 -203 4 -2 7 -10 7 -19 0 -8 3 -13 8 -11 4 2 34 16 67 32 33 16 72 37 88
48 15 11 27 16 27 12 0 -3 6 -2 13 4 11 9 150 82 447 234 58 29 112 58 120 63
8 5 17 10 20 10 3 1 46 22 95 47 82 42 117 69 122 94 1 5 25 59 53 119 29 61
78 166 110 235 32 69 74 160 94 202 20 42 36 79 36 80 0 2 -13 5 -28 6 -17 1
-66 -17 -122 -45z"/>
<path d="M4704 3638 c-14 -21 -39 -74 -99 -213 -31 -71 -69 -157 -84 -190
l-29 -60 191 -3 c104 -1 192 0 194 2 4 4 -50 261 -78 371 -11 45 -17 74 -18
93 -1 7 -15 12 -35 12 -18 0 -38 -6 -42 -12z"/>
<path d="M5565 3618 c3 -18 11 -51 17 -73 5 -22 12 -49 13 -60 2 -11 13 -63
25 -115 12 -52 26 -115 31 -140 5 -24 13 -48 17 -52 6 -6 2898 -13 3265 -8
l27 0 0 240 0 240 -1700 0 -1700 0 5 -32z"/>
</g>
</svg>
